<?xml version="1.0" standalone="no"?>
<!DOCTYPE svg PUBLIC "-//W3C//DTD SVG 20010904//EN"
 "http://www.w3.org/TR/2001/REC-SVG-20010904/DTD/svg10.dtd">
<svg version="1.0" xmlns="http://www.w3.org/2000/svg"
 width="700.000000pt" height="700.000000pt" viewBox="0 0 700.000000 700.000000"
 preserveAspectRatio="xMidYMid meet">
<metadata>
Created by potrace 1.11, written by Peter Selinger 2001-2013
</metadata>
<g transform="translate(0.000000,700.000000) scale(0.100000,-0.100000)"
fill="#000000" stroke="none">
<path d="M3974 5791 c-41 -25 -12 64 -309 -966 -131 -453 -257 -892 -366
-1265 -61 -212 -119 -414 -129 -450 -14 -51 -151 -524 -255 -880 -7 -25 -21
-72 -30 -105 -22 -79 -92 -322 -104 -360 -44 -139 -131 -460 -131 -484 0 -67
59 -100 255 -147 67 -16 73 -16 109 1 32 16 49 37 62 80 5 16 52 179 55 193 2
4 9 27 16 52 8 25 52 178 99 340 47 162 106 365 131 450 25 85 49 169 53 185
8 30 77 270 335 1160 75 259 140 484 145 500 4 17 42 149 85 295 42 146 78
272 80 280 6 20 26 92 68 235 126 429 207 720 207 745 0 58 -42 88 -175 125
-139 40 -159 42 -201 16z"/>
<path d="M2025 5155 c-11 -8 -382 -376 -824 -817 -496 -496 -809 -816 -818
-836 -11 -26 -11 -41 -4 -65 8 -22 264 -285 828 -849 651 -649 825 -817 850
-823 50 -10 89 15 196 124 99 102 118 139 102 192 -4 12 -313 327 -686 701
-374 374 -679 682 -679 684 0 3 304 310 676 682 372 372 680 687 685 700 23
60 14 78 -93 189 -57 58 -115 111 -130 119 -35 18 -77 17 -103 -1z"/>
<path d="M4768 5062 c-58 -57 -112 -116 -118 -133 -29 -70 -49 -48 680 -777
374 -374 680 -682 680 -685 0 -3 -301 -306 -668 -674 -367 -367 -675 -679
-685 -693 -22 -32 -22 -75 3 -114 17 -28 159 -172 202 -204 26 -21 74 -25 104
-9 41 22 1634 1618 1650 1653 14 33 12 61 -5 91 -17 31 -1615 1624 -1643 1639
-58 30 -85 18 -200 -94z"/>
</g>
</svg>
